<svg width="24" height="24" viewBox="0 0 24 24" fill="none" xmlns="http://www.w3.org/2000/svg">
<path d="M20.4643 17.0784C20.3883 17.2052 20.2881 17.3158 20.1693 17.4038C20.0506 17.4919 19.9157 17.5557 19.7723 17.5915C19.6289 17.6274 19.4798 17.6347 19.3336 17.6129C19.1874 17.5911 19.0469 17.5408 18.9202 17.4647L13.1246 13.9866V20.25C13.1246 20.5484 13.0061 20.8345 12.7951 21.0455C12.5841 21.2565 12.298 21.375 11.9996 21.375C11.7012 21.375 11.4151 21.2565 11.2041 21.0455C10.9931 20.8345 10.8746 20.5484 10.8746 20.25V13.9866L5.07897 17.4647C4.95228 17.5407 4.81186 17.591 4.66573 17.6128C4.5196 17.6345 4.37061 17.6273 4.22727 17.5915C4.08394 17.5557 3.94906 17.492 3.83034 17.404C3.71163 17.3161 3.6114 17.2056 3.53537 17.0789C3.38184 16.8231 3.33623 16.5167 3.40858 16.2272C3.48092 15.9377 3.6653 15.6888 3.92115 15.5353L9.81334 12L3.92115 8.46469C3.6653 8.31115 3.48092 8.06227 3.40858 7.77279C3.33623 7.48331 3.38184 7.17694 3.53537 6.92109C3.68891 6.66524 3.93779 6.48086 4.22727 6.40851C4.51675 6.33617 4.82312 6.38178 5.07897 6.53531L10.8746 10.0134V3.75C10.8746 3.45163 10.9931 3.16548 11.2041 2.9545C11.4151 2.74353 11.7012 2.625 11.9996 2.625C12.298 2.625 12.5841 2.74353 12.7951 2.9545C13.0061 3.16548 13.1246 3.45163 13.1246 3.75V10.0134L18.9202 6.53531C19.0469 6.45929 19.1873 6.40896 19.3335 6.38721C19.4796 6.36545 19.6286 6.37269 19.7719 6.40851C19.9152 6.44434 20.0501 6.50804 20.1688 6.59599C20.2876 6.68394 20.3878 6.79441 20.4638 6.92109C20.5398 7.04778 20.5902 7.1882 20.6119 7.33433C20.6337 7.48046 20.6264 7.62945 20.5906 7.77279C20.5548 7.91612 20.4911 8.051 20.4031 8.16972C20.3152 8.28843 20.2047 8.38866 20.078 8.46469L14.1858 12L20.078 15.5353C20.3338 15.6888 20.5182 15.9375 20.5907 16.2269C20.6631 16.5163 20.6176 16.8226 20.4643 17.0784Z" fill="black"/>
</svg>
