<svg width="24" height="24" viewBox="0 0 24 24" fill="none" xmlns="http://www.w3.org/2000/svg">
<path d="M7.58064 16.5751H8.40197V16.9398H8.79308V17.2713H9.61442V17.6028H14.4251V17.2713H15.2073V16.9398H15.5984V16.5751H16.4198V19.2937H15.9895V19.6252H15.5984V19.9899H15.2073V20.3214H14.4251V20.6529H13.9949V21.0176H13.6038V21.3657H13.2126V23.04H12.0002V22.3769H11.218V21.3657H10.8073V19.6749H10.3966V19.3268H9.20375V20.3214H8.40197V19.9899H8.01086V18.6306H7.58064V16.5751Z" fill="black"/>
<path d="M3.2002 15.912H4.37353V15.2158H6.79842V14.5528H8.79308V13.1935H9.1842V11.8342H9.61442V10.8064H10.0055V8.78411H10.7878V6.72861H11.218V6.39708H11.6091V5.36933H12.3913V6.39708H12.7824V6.72861H13.2126V8.78411H13.9949V10.8064H14.386V11.8342H14.8162V12.8288H15.2073V14.5528H17.202V15.2158H19.6269V15.912H20.8002V13.8897H20.018V12.5304H19.5878V10.8064H18.8055V9.11564H18.4144V7.75636H17.9842V7.42483H17.5931V6.06555H17.202V4.37474H16.8109V4.0432H16.4198V2.68392H15.9895V1.65618H15.5984V1.32465H14.8162V0.959961H9.1842V1.32465H8.40197V1.65618H8.01086V2.68392H7.58064V3.67852H7.18953V4.37474H6.79842V5.73402H6.40731V6.76176H6.0162V7.75636H5.58597V8.78411H5.19486V10.1434H4.80375V10.8064H4.37353V12.5304H3.98242V13.1935H3.59131V14.5528H3.2002V15.912Z" fill="black"/>
</svg>
