<svg width="24" height="24" viewBox="0 0 24 24" fill="none" xmlns="http://www.w3.org/2000/svg">
<path d="M0.959961 11.6402H17.0661V11.3033H17.681V10.6297H17.3589V8.14928H17.681V7.4756H18.0031V6.83254H18.2667V7.16938H18.5595V7.50622H18.8817V7.81244H19.3502V8.48612H19.6723V9.0067H19.9652V9.64976H21.8393V9.9866H22.425V10.3234H23.04V10.6297H22.7178V10.9665H22.425V11.3033H22.1322V11.6096H21.81V11.9464H21.5172V12.2833H20.6387V12.6201H19.4966V13.2632H19.2038V13.6H18.8817V14.2737H18.5595V14.8555H18.2667V15.1923H17.9446V15.6517H17.6517V15.9885H17.3296V16.2947H17.0368V16.6316H16.7439V17.0909H16.2754V17.4278H15.9826V17.734H15.6604V17.9177H15.3676V18.2239H14.9283V18.5608H14.3134V18.867H13.5813V19.0201H13.2884V19.3263H12.3807V19.6632H11.4729V20H6.37747V19.6632H5.20611V19.3263H4.29832V18.867H3.71264V18.5608H3.4198V18.2239H2.80484V17.734H2.512V17.4278H2.21917V17.0909H1.89704V16.6316H1.6042V15.9885H1.28208V14.8555H0.959961V11.6402Z" fill="currentColor"/>
<path d="M13.5813 11.3033H15.3969V9.31292H13.5813V11.3033Z" fill="currentColor"/>
<path d="M10.9311 11.3033H12.7467V9.31292H10.9311V11.3033Z" fill="currentColor"/>
<path d="M10.9311 8.62392H12.7467V6.63349H10.9311V8.62392Z" fill="currentColor"/>
<path d="M10.9311 5.99043H12.7467V4H10.9311V5.99043Z" fill="currentColor"/>
<path d="M8.19306 8.62392H10.0087V6.63349H8.19306V8.62392Z" fill="currentColor"/>
<path d="M8.19306 11.3033H10.0087V9.31292H8.19306V11.3033Z" fill="currentColor"/>
<path d="M5.51359 11.3033H7.32919V9.31292H5.51359V11.3033Z" fill="currentColor"/>
<path d="M5.51359 8.62392H7.32919V6.63349H5.51359V8.62392Z" fill="currentColor"/>
<path d="M2.77556 11.3033H4.59115V9.31292H2.77556V11.3033Z" fill="currentColor"/>
</svg>
