<svg width="24" height="24" viewBox="0 0 24 24" fill="none" xmlns="http://www.w3.org/2000/svg">
<path fill-rule="evenodd" clip-rule="evenodd" d="M6.58163 10.6221H6.80889V10.3545H7.33517V9.9398H8.00499V9.37793H8.78245V9.05686H9.02167V8.58863H9.42835V8.1204H10.3135V8.58863H9.89483V9.45819H9.42835V9.9398H8.78245V10.2876H8.3997V10.7826H7.88538V11.2508H7.33517V11.7726H7.16772V13.1371H7.33517V13.6054H8.31597V14.0602H8.79441V14.5418L9.45227 14.5284V16.3478H8.80637V17.0033H8.06479V17.7258H7.34713V18.1806H6.58163V17.7258H5.84005V18.6355H6.60555V19.3846H7.34713V20H8.80637V19.3846H9.52403V18.6355H10.5048V18.1806H11.2464V17.7258H11.988V16.9498H13.4712V16.3612H14.8586V15.9064H15.7916V15.4515H18.8775V14.5418H19.6191V13.6321H20.1454V12.6957H18.112V13.6054H15.7916V11.786H18.136V10.8763H20.3607V10.4214H21.1262V9.05686H21.5807V8.14716H20.3607V9.0301H18.112V9.48495H17.3944V9.96656H15.7677V8.1204H17.3944V7.2107H20.3607V6.301H22.6572V4.48161H23.04V4H21.8917V4.48161H20.3607V4.9097H19.6191V5.3913H17.3944V6.29834H16.1026V5.3913H16.6289V4H15.8634V4.48161H15.0979V4.9097H14.3563V5.3913H8.06479V6.301H6.58163V7.2107H5.84005V7.66555H5.12239V9.0301H4.38081V9.9398H4.09374V10.3946H3.54354V10.8763H2.87372V11.3043H2.17998V11.786H1.62978V12.2408H0.959961V12.6957H1.91684V12.2408H2.80195V12.6957H2.17998V13.1505H1.91684V13.6054H1.24702V14.5151H1.74939V15.4247H3.68707V15.8796H4.09374V16.0134H4.64395V15.4515H4.38081V14.9699H5.12239V14.5151H5.84005V13.6054H6.58163V10.6221ZM12.4471 10.2876H12.1194V11.0514L13.0176 11.0752V10.7602L12.7141 10.7481V10.4451L12.4471 10.4573V10.2876ZM11.7673 11.4869H11.4396V12.2506L12.3379 12.2745V11.9595L12.0344 11.9473V11.6444L11.7673 11.6565V11.4869ZM13.1997 11.5599H12.8719V12.3237L13.7702 12.3476V12.0325L13.4667 12.0204V11.7175L13.1997 11.7296V11.5599Z" fill="currentColor"/>
</svg>
