<svg width="24" height="24" viewBox="0 0 24 24" fill="none" xmlns="http://www.w3.org/2000/svg">
<path d="M22.125 6.00011C22.125 5.38136 21.955 4.77451 21.6334 4.24589C21.3118 3.71728 20.8511 3.28724 20.3016 3.00279C19.7521 2.71834 19.135 2.59041 18.5177 2.63301C17.9004 2.6756 17.3067 2.88707 16.8015 3.24429C16.2963 3.60152 15.899 4.09076 15.6531 4.65854C15.4071 5.22631 15.322 5.85077 15.407 6.46365C15.492 7.07653 15.7439 7.65426 16.135 8.13367C16.5262 8.61308 17.0416 8.97573 17.625 9.18198V10.5001C17.625 10.5996 17.5855 10.6949 17.5152 10.7653C17.4449 10.8356 17.3495 10.8751 17.25 10.8751H9.00001C8.87452 10.8751 8.74919 10.8842 8.62501 10.9023V9.18198C9.37562 8.9166 10.0083 8.3944 10.4111 7.70769C10.8139 7.02098 10.961 6.21396 10.8264 5.42928C10.6918 4.6446 10.2841 3.93277 9.67538 3.41961C9.06667 2.90645 8.29616 2.625 7.50001 2.625C6.70386 2.625 5.93334 2.90645 5.32464 3.41961C4.71594 3.93277 4.30824 4.6446 4.17361 5.42928C4.03898 6.21396 4.18608 7.02098 4.58892 7.70769C4.99176 8.3944 5.62439 8.9166 6.37501 9.18198V14.8182C5.62439 15.0836 4.99176 15.6058 4.58892 16.2925C4.18608 16.9792 4.03898 17.7862 4.17361 18.5709C4.30824 19.3556 4.71594 20.0674 5.32464 20.5806C5.93334 21.0938 6.70386 21.3752 7.50001 21.3752C8.29616 21.3752 9.06667 21.0938 9.67538 20.5806C10.2841 20.0674 10.6918 19.3556 10.8264 18.5709C10.961 17.7862 10.8139 16.9792 10.4111 16.2925C10.0083 15.6058 9.37562 15.0836 8.62501 14.8182V13.5001C8.62501 13.4007 8.66452 13.3053 8.73484 13.2349C8.80517 13.1646 8.90055 13.1251 9.00001 13.1251H17.25C17.9462 13.1251 18.6139 12.8485 19.1062 12.3563C19.5985 11.864 19.875 11.1963 19.875 10.5001V9.18198C20.5325 8.94852 21.1016 8.51741 21.5045 7.94775C21.9073 7.3781 22.124 6.69779 22.125 6.00011ZM7.50001 4.87511C7.72251 4.87511 7.94002 4.94109 8.12502 5.0647C8.31003 5.18832 8.45422 5.36402 8.53937 5.56959C8.62452 5.77515 8.6468 6.00135 8.60339 6.21958C8.55998 6.43781 8.45284 6.63827 8.2955 6.7956C8.13817 6.95294 7.93771 7.06008 7.71949 7.10349C7.50126 7.1469 7.27506 7.12462 7.06949 7.03947C6.86392 6.95432 6.68822 6.81013 6.5646 6.62512C6.44099 6.44012 6.37501 6.22261 6.37501 6.00011C6.37501 5.70174 6.49353 5.41559 6.70451 5.20461C6.91549 4.99363 7.20164 4.87511 7.50001 4.87511ZM7.50001 19.1251C7.2775 19.1251 7.06 19.0591 6.87499 18.9355C6.68999 18.8119 6.54579 18.6362 6.46064 18.4306C6.37549 18.2251 6.35322 17.9989 6.39662 17.7806C6.44003 17.5624 6.54718 17.3619 6.70451 17.2046C6.86185 17.0473 7.0623 16.9401 7.28053 16.8967C7.49876 16.8533 7.72496 16.8756 7.93053 16.9607C8.13609 17.0459 8.3118 17.1901 8.43541 17.3751C8.55903 17.5601 8.62501 17.7776 8.62501 18.0001C8.62501 18.2985 8.50648 18.5846 8.2955 18.7956C8.08453 19.0066 7.79838 19.1251 7.50001 19.1251ZM18.75 7.12511C18.5275 7.12511 18.31 7.05913 18.125 6.93551C17.94 6.81189 17.7958 6.63619 17.7106 6.43063C17.6255 6.22506 17.6032 5.99886 17.6466 5.78063C17.69 5.5624 17.7972 5.36195 17.9545 5.20461C18.1119 5.04728 18.3123 4.94013 18.5305 4.89672C18.7488 4.85331 18.975 4.87559 19.1805 4.96074C19.3861 5.04589 19.5618 5.19008 19.6854 5.37509C19.809 5.5601 19.875 5.7776 19.875 6.00011C19.875 6.29848 19.7565 6.58462 19.5455 6.7956C19.3345 7.00658 19.0484 7.12511 18.75 7.12511Z" fill="currentColor"/>
</svg>
