<svg width="24" height="24" viewBox="0 0 24 24" fill="none" xmlns="http://www.w3.org/2000/svg">
<g clip-path="url(#clip0_241_182)">
<path d="M23.0365 8.98965V15.0097H22.0331V17.0164H21.0298V19.0231H20.0264V20.0264H19.0231V21.0298H18.0197V22.0331H16.0131V23.0365H15.0097V18.0197H14.0064V17.0164H15.0097V16.0131H17.0164V15.0097H18.0197V14.0064H19.0231V8.98965H18.0197V5.97961H16.0131V6.98296H15.0097V7.9863H14.0064V6.98296H9.99299V7.9863H8.98965V6.98296H7.9863V5.97961H5.97961V8.98965H4.97627V14.0064H5.97961V15.0097H6.98296V16.0131H8.98965V18.0197H6.98296V17.0164H5.97961V16.0131H3.97292V17.0164H4.97627V19.0231H5.97961V20.0264H8.98965V23.0365H7.9863V22.0331H5.97961V21.0298H4.97627V20.0264H3.97292V19.0231H2.96958V17.0164H1.96624V15.0097H0.962891V8.98965H1.96624V6.98296H2.96958V4.97627H3.97292V3.97292H4.97627V2.96958H6.98296V1.96624H8.98965V0.962891H15.0097V1.96624H17.0164V2.96958H19.0231V3.97292H20.0264V4.97627H21.0298V6.98296H22.0331V8.98965H23.0365Z" fill="black"/>
</g>
<defs>
<clipPath id="clip0_241_182">
<rect width="24" height="24" fill="white"/>
</clipPath>
</defs>
</svg>
