<svg width="24" height="24" viewBox="0 0 24 24" fill="none" xmlns="http://www.w3.org/2000/svg">
<path d="M21.7777 7.61841L14.4445 1.83932C13.7722 1.29882 12.9019 1 12 1C11.0981 1 10.2279 1.29882 9.55561 1.83932L2.22233 7.61841C1.83412 7.93051 1.52432 8.31339 1.31358 8.74153C1.10284 9.16968 0.995976 9.63327 1.00012 10.1014V19.7039C1.00012 20.5781 1.38642 21.4165 2.07405 22.0346C2.76168 22.6527 3.6943 23 4.66676 23H19.3333C20.3058 23 21.2384 22.6527 21.926 22.0346C22.6137 21.4165 23 20.5781 23 19.7039V10.0904C23.0024 9.62413 22.8947 9.16265 22.684 8.73652C22.4733 8.31038 22.1644 7.92929 21.7777 7.61841ZM14.4445 20.8026H9.55561V15.3092C9.55561 15.0178 9.68438 14.7384 9.91359 14.5323C10.1428 14.3263 10.4537 14.2105 10.7778 14.2105H13.2223C13.5464 14.2105 13.8573 14.3263 14.0865 14.5323C14.3157 14.7384 14.4445 15.0178 14.4445 15.3092V20.8026ZM20.5555 19.7039C20.5555 19.9953 20.4268 20.2748 20.1976 20.4808C19.9683 20.6869 19.6575 20.8026 19.3333 20.8026H16.8889V15.3092C16.8889 14.435 16.5026 13.5967 15.815 12.9785C15.1273 12.3604 14.1947 12.0131 13.2223 12.0131H10.7778C9.80537 12.0131 8.87275 12.3604 8.18512 12.9785C7.49749 13.5967 7.11118 14.435 7.11118 15.3092V20.8026H4.66676C4.34261 20.8026 4.03173 20.6869 3.80252 20.4808C3.57331 20.2748 3.44454 19.9953 3.44454 19.7039V10.0904C3.44476 9.93445 3.48193 9.78029 3.55359 9.63821C3.62524 9.49613 3.72972 9.36939 3.8601 9.26643L11.1934 3.49834C11.4164 3.3222 11.7032 3.22505 12 3.22505C12.2969 3.22505 12.5837 3.3222 12.8067 3.49834L20.14 9.26643C20.2704 9.36939 20.3748 9.49613 20.4465 9.63821C20.5181 9.78029 20.5553 9.93445 20.5555 10.0904V19.7039Z" fill="black"/>
</svg>
