<svg width="24" height="24" viewBox="0 0 24 24" fill="none" xmlns="http://www.w3.org/2000/svg">
<path d="M1.28027 16.8002H4.02899V11.3633H4.76198V12.606H5.46443V13.2895H6.13634V14.0041H6.4723V14.6876H7.17475V14.0041H7.5107V13.2895H8.18261V12.606H8.88506V11.3633H9.61805V16.8002H12.3362V7.2002H9.58751V7.88369H8.9156V8.59825H8.21315V9.28175H7.54124V9.99631H6.1058V9.28175H5.43389V8.59825H4.73144V7.88369H4.02899V7.2002H1.28027V16.8002Z" fill="black"/>
<path d="M17.1923 7.2002H19.9716V12.14H22.7203V12.606H22.0178V13.2895H21.3154V14.0041H20.6435V14.6876H19.941V15.4021H19.2691V16.0856H18.9332V16.8002H18.2612V16.0856H17.8947V15.4021H17.2228V14.6876H16.5204V14.0041H15.8179V13.2895H15.146V12.606H14.4436V12.14H17.1923V7.2002Z" fill="black"/>
</svg>
