<svg width="24" height="24" viewBox="0 0 24 24" fill="none" xmlns="http://www.w3.org/2000/svg">
<path d="M7.63663 8.20723H9.39206V18.4259H8.67972V19.4163H7.99281V19.7545H7.28046V20.0686H5.90665V19.7545H5.21974V19.4163H4.50739V18.7641H3.13358V18.0877H2.44667V17.4354H1.75977V6.56451H2.44667V6.22631H3.13358V5.57405H4.17666V4.9218H5.21974V4.24539H6.26282V3.59313H7.66208V2.94088H8.34898V2.27655H9.39206V1.95042H10.4351V1.61221H11.1221V0.959961H12.852V1.61221H13.5389V1.95042H14.582V2.26447H15.6251V2.94088H16.312V3.59313H17.7113V4.24539H18.7543V4.90972H19.7974V5.57405H20.8405V6.22631H21.5274V6.56451H22.2398V17.4354H21.5274V18.0877H20.8405V18.7641H19.4413V19.4163H18.7543V19.7545H18.0547V20.0686H17.0244V20.745H15.9813V21.3972H15.2689V21.7355H14.582V22.0495H13.8951V22.3877H12.8393V23.04H11.1221V22.3877H10.079V22.0495H9.39206V21.7355H8.70516V21.3972H7.99281V20.745H8.70516V20.0927H10.079V20.745H11.1221V21.3972H12.852V20.745H13.8951V20.0927H15.2689V19.4163H16.3375V18.7641H17.7113V18.0997H18.7543V17.4475H19.7974V16.7952H20.8405V7.55497H19.7974V6.56451H18.7543V6.22631H17.7113V5.57405H17.0244V5.23585H16.6682V4.90972H15.6251V4.24539H14.5947V3.59313H13.5389V3.25493H12.852V2.94088H11.1221V3.25493H10.4351V3.59313H9.39206V4.24539H8.34898V4.90972H7.29318V5.23585H6.94973V5.57405H6.26282V6.22631H5.21974V6.56451H4.17666V7.55497H3.13358V16.7832L4.17666 16.7952V17.4354H5.21974V17.7736H5.90665V18.4259H6.94973V17.7736H7.64936L7.63663 8.20723Z" fill="currentColor"/>
<path d="M10.4224 13.4856H12.1524V14.452H12.852V15.1404H16.3247V14.452H17.0116V13.4856H15.9813V12.8334H12.852V12.1811H11.1093V11.1786H10.4224V9.52381H11.1093V8.54543H11.4655V8.19515H12.8393V7.54289H15.9813V8.20723H17.7113V9.19768H18.4109V10.5264H16.3247V9.53589H15.2944V8.85948H13.5389V9.53589H12.1651C12.1609 9.86202 12.155 10.5143 12.1651 10.5143H12.852V11.1786H15.9813V11.8309H17.7113V12.1691H18.0674V12.8213H18.7543V15.1404H18.0674V15.4545H17.7113V16.1309H15.9813V16.7832H12.852V16.1309H11.1221V15.1404H10.4224V13.4856Z" fill="currentColor"/>
</svg>
