<svg width="24" height="24" viewBox="0 0 24 24" fill="none" xmlns="http://www.w3.org/2000/svg">
<path d="M20.2398 21.6789H21.6004V5.04325H20.2398V6.55558H16.0823V7.91667H20.2398V21.6789Z" fill="black"/>
<path d="M2.40039 21.6789H3.76102V2.32106H2.40039V21.6789Z" fill="black"/>
<path d="M3.76102 21.6789V23.04H20.2398V21.6789H3.76102Z" fill="black"/>
<path d="M6.48228 17.4443V18.9567H14.6461V17.4443H6.48228Z" fill="black"/>
<path d="M6.48228 13.3611V14.7222H16.0823V13.3611H6.48228Z" fill="black"/>
<path d="M6.48228 9.20215V10.6389H17.5185V9.20215H6.48228Z" fill="black"/>
<path d="M20.2398 5.04325V3.68215H18.8791V5.04325H20.2398Z" fill="black"/>
<path d="M18.8791 3.68215V2.32106H17.5185V3.68215H18.8791Z" fill="black"/>
<path d="M17.5185 2.32106V0.959961H3.76102V2.32106H14.6461V6.55558H16.0823V2.32106H17.5185Z" fill="black"/>
<path d="M16.0823 6.55558H20.2398V5.04325H18.8791V3.68215H17.5185V2.32106H16.0823V6.55558Z" fill="black"/>
</svg>
