<svg width="24" height="24" viewBox="0 0 24 24" fill="none" xmlns="http://www.w3.org/2000/svg">
<path d="M23 6.76359C23.0008 6.61883 22.9731 6.47533 22.9183 6.34132C22.8636 6.20731 22.7829 6.08542 22.681 5.98265L18.017 1.31899C17.9142 1.21705 17.7923 1.1364 17.6583 1.08166C17.5243 1.02693 17.3808 0.999181 17.236 1.00002C17.0912 0.999181 16.9477 1.02693 16.8137 1.08166C16.6797 1.1364 16.5578 1.21705 16.455 1.31899L13.342 4.43176L1.31902 16.4539C1.21707 16.5566 1.13641 16.6785 1.08167 16.8125C1.02693 16.9466 0.999181 17.0901 1.00002 17.2348V21.8985C1.00002 22.1902 1.11591 22.4699 1.3222 22.6762C1.52849 22.8825 1.80828 22.9984 2.10002 22.9984H6.76401C6.91793 23.0067 7.07189 22.9827 7.21591 22.9277C7.35993 22.8728 7.49079 22.7882 7.60001 22.6794L19.557 10.6573L22.681 7.59953C22.7814 7.49292 22.8632 7.37023 22.923 7.23655C22.9336 7.14888 22.9336 7.06025 22.923 6.97257C22.9281 6.92137 22.9281 6.86978 22.923 6.81858L23 6.76359ZM6.31301 20.7985H3.20001V17.6858L14.123 6.76359L17.236 9.87636L6.31301 20.7985ZM18.787 8.32547L15.674 5.2127L17.236 3.66182L20.338 6.76359L18.787 8.32547Z" fill="black"/>
</svg>
