<svg width="24" height="24" viewBox="0 0 24 24" fill="none" xmlns="http://www.w3.org/2000/svg">
<path d="M12.7457 22.2013H13.1385V22.5806H13.5314V22.96H15.8885V22.5806H16.6742V22.2013H17.0671V21.822H17.46V20.6841H17.8528V18.4082H18.2457V14.2358H18.6385V13.8565H19.0314V13.0979H18.6385V12.3393H18.2457V11.5807H17.8528V10.822H17.46V10.0634H17.0671V9.30479H16.6742V8.54617H16.2814V7.02893H16.6742V6.27031H17.0671V5.891H17.46V5.51169H19.4242V4.75306H19.0314V3.99444H18.6385V3.23582H18.2457V2.4772H17.46V1.71858H15.8885V0.959961H9.60282V1.71858H8.8171V2.4772H8.42425V3.23582H8.03139V3.99444H7.63853V4.75306H7.24567V6.27031H8.03139V5.51169H10.7814V5.891H11.1742V6.27031H11.5671V7.02893H11.96V10.822H11.5671V11.96H11.1742V13.0979H10.7814V13.8565H11.5671V14.2358H11.96V14.6151H12.3528V20.6841H12.7457V22.2013Z" fill="currentColor"/>
<path d="M8.03139 6.27031V7.02893H7.24567V11.5807H7.63853V12.3393H8.03139V13.0979H8.8171V13.4772H9.20996V13.8565H9.99567V13.0979H10.3885V11.96H10.7814V10.822H11.1742V7.78755H10.7814V7.02893H10.3885V7.78755H9.20996V7.02893H10.3885V6.27031H8.03139Z" fill="currentColor"/>
<path fill-rule="evenodd" clip-rule="evenodd" d="M19.8171 6.27031V7.36636H19.4242V12.3393H19.0314V11.5807H18.6385V10.822H18.2457V10.0634H17.8528V9.30479H17.46V8.54617H17.0671V7.02893H17.46V6.27031H19.8171ZM19.0314 7.02893H17.8528V7.78755H18.6385V7.40824H19.0314V7.02893Z" fill="currentColor"/>
<path d="M20.21 7.02893V12.0785V12.3393H20.6028V11.5807H20.9957V10.822H21.3885V10.0634H21.7814V9.30479H22.1742V8.54617H22.5671V7.02893H22.96V2.4772H22.1742V1.71858H21.3885V0.959961H17.46V1.71858H18.2457V2.4772H19.0314V3.23582H19.4242V3.99444H19.8171V4.75306H20.21V5.51169H20.6028V7.02893H20.21Z" fill="currentColor"/>
<path d="M19.0314 14.6151H20.6028V14.9944H21.7814V14.6151H22.96V14.9944H22.5671V15.3738H21.3885V15.7531H19.0314V14.6151Z" fill="currentColor"/>
<path d="M8.03139 16.891V16.5117H7.63853V16.1324H9.60282V15.7531H9.99567V15.3738H10.3885V14.6151H11.5671V15.7531H11.1742V16.1324H10.7814V16.5117H9.99567V16.891H8.03139Z" fill="currentColor"/>
<path d="M8.03139 0.959961V2.4772H7.2334L7.24567 3.99444H6.45996V11.5807H6.85282V12.7186H7.24567V13.0979H7.63853V13.8565H7.24567V14.6151H6.85282V14.9944H6.45996V15.3738H6.0671V15.7531H5.67425V16.1324H4.10282V15.7531H3.70996V15.3738H3.3171V14.6151H2.92425V13.8565H2.53139V13.0979H2.13853V11.5807H1.74568V10.0634H1.35282V8.54617H0.959961V2.4772H1.74568V1.71858H2.53139V0.959961H8.03139Z" fill="currentColor"/>
</svg>
