<svg width="24" height="24" viewBox="0 0 24 24" fill="none" xmlns="http://www.w3.org/2000/svg">
<path fill-rule="evenodd" clip-rule="evenodd" d="M7.74869 23.04H10.2619V22.1887H11.973V21.3374H14.5397V20.4861H16.2508V19.6349H18.8175V18.7836H20.5286V17.9323H21.3842V17.081H22.2398V15.4317H21.3842V13.7291H20.5286V12.0266H19.6731V11.1753H18.8175V9.47273H17.962V8.62145H17.1064V6.9189H16.2508V5.21635H15.3953V4.36507H14.5397V2.66252H13.6842V1.81124H12.8286V0.959961H11.1709V1.81124H10.3154V2.66252H9.45982V4.36507H8.60426V5.21635H7.74869V6.9189H6.89313V7.77018H6.03757V9.47273H5.18201V10.324H4.32645V11.1753H3.47089V12.8778H2.61533V13.7291H1.75977V16.2297H2.61533V17.081H3.47089V17.9323H4.32645V18.7836H5.18201V20.4861H6.03757V21.3374H6.89313V22.1887H7.74869V23.04ZM9.40634 18.7836V21.3906H11.1709V20.5393H13.7376L13.731 19.6881H15.4487V18.8368H17.9887V17.9855H19.6998V17.1342H20.5821V14.5272H19.7266V13.6759H18.871V11.9734H18.0154V10.2708H17.1599V9.41953H16.3043V7.71697H15.4487V6.01442H14.5932V5.16314H13.7376V3.46059H12.8286V5.16314H11.973V9.41953H11.1175V13.6759H10.2619V18.7836H9.40634Z" fill="black"/>
</svg>
