<svg width="24" height="24" viewBox="0 0 24 24" fill="none" xmlns="http://www.w3.org/2000/svg">
<path fill-rule="evenodd" clip-rule="evenodd" d="M5.84207 16.8426H5.27828V21.33H5.84207V21.9023H6.38417V22.5205H8.63933V21.9252H9.76691V21.3529H10.8945V20.1394H13.1063V21.3393H14.2339V21.9023H15.3614V22.5205H17.5949V21.9252H18.1587V21.3529H18.7225V16.8549H18.1587V15.4461H20.9343V14.8279H21.4981V14.2327H22.6257V12.7445H23.1678V11.2793H22.604V10.4093H22.0836V9.81405H20.956V9.173H19.8284V8.55485H18.1804V7.22698H18.7442V2.73966H18.1804V2.14441H17.6166V1.50336H15.3533V2.12151H14.2339V2.73966H13.1063V3.33492H12.5642V3.95307H11.4366V3.35781H10.8728V2.73966H9.74523V2.12151H8.63933V1.48047H6.39151V2.12151H5.82038V2.71677H5.25659V7.19181H5.82038V8.53196H4.17238V9.15011H3.06648V9.76826H1.9389V10.3635H1.3968V11.2564H0.833008V12.7445H1.3968V14.2327H2.52438V14.8279H3.08817V15.469H5.84207V16.8426ZM8.66102 8.55485H7.53344V9.79115H8.09723V9.15011H8.66102V8.55485ZM16.517 9.74535L16.5107 8.55485L15.3398 8.56177L15.3429 9.15702L15.9501 9.15343L15.9532 9.74868L16.517 9.74535ZM15.3398 15.469L16.4673 15.4727L16.471 14.2364L15.9072 14.2346L15.9053 14.8756L15.3415 14.8737L15.3398 15.469ZM7.51086 14.2346L7.51265 15.4251L8.6836 15.4232L8.6827 14.8279L8.07554 14.8289L8.07465 14.2337L7.51086 14.2346ZM11.4366 17.4379H10.8728V16.8426H13.128V17.4379H12.5642V18.0332H11.4366V17.4379ZM12.5853 6.63005L13.1491 6.62949L13.1497 7.22475L10.8945 7.22698L10.894 6.63172L11.4578 6.63116L11.4572 6.03591L12.5848 6.03479L12.5853 6.63005ZM8.63933 21.33H6.96965V20.1394H6.38417V16.8198H8.07554H9.76691V18.0561H10.8945V19.5213H10.3307V20.1394H9.76691V20.7347H8.63933V21.33ZM15.3614 21.33H17.0151V20.1394H17.5949V16.8198H15.9198H14.2447V18.0561H13.128V19.5213H13.6863V20.1394H14.2447V20.7347H15.3614V21.33ZM14.2447 15.4251H9.76691V14.2098H8.66102V12.7216H8.09723V11.2793H8.66102V9.79115H9.76691V8.57775H14.2339V9.81405H15.3398V11.3022H15.9252V12.7445H15.3398V14.2327H14.2447V15.4251ZM7.49007 7.91381H6.96965V7.19181H6.40586V3.93018H6.94796V2.73966H8.63933V3.35781H9.76691V4.2278H10.8511V5.96778H9.74523V7.19181H7.49007V7.91381ZM16.5271 7.91381H17.0501V7.19181H17.6166V3.93018H17.0719V2.73966H15.3722V3.35781H14.2392V4.2278H13.1497V5.96778H14.2609V7.19181H16.5271V7.91381ZM5.84207 14.8279H5.27828V14.2327H3.08817V13.3398H2.52438V12.7445H1.9389V11.2793H3.06648V10.3864H4.17238V9.79115H5.27828V9.173H5.84207V9.79115H6.40586V11.3022H6.96965V12.7674H6.40586V14.2346H5.84207V14.8279ZM18.1783 14.8756H18.7424V14.2803H20.9337V13.3875H21.4978V12.7922H22.0836V11.327H20.9554V10.4341H19.8489V9.83882H18.7424V9.22067H18.1783V9.83882H17.6142V11.3499H17.0501V12.8151H17.6142V14.2823H18.1783V14.8756Z" fill="black"/>
<path d="M10.8728 14.2346H13.128V12.7216H14.2122V11.3251H13.128V9.81405H10.8728V11.3251H9.76691V12.7216H10.8728V14.2346Z" fill="black"/>
</svg>
