<svg width="24" height="24" viewBox="0 0 24 24" fill="none" xmlns="http://www.w3.org/2000/svg">
<path d="M0.959961 17.1203H1.48116V16.4733H2.54726V15.8544H3.09215V15.2073H5.27172V15.8544H6.33782V16.4733H6.88271V17.1203H7.4276V17.7673H7.97249V18.4144H8.49369V19.0614H9.55979V19.6803H14.4164V19.0614H15.5062V18.4144H16.0274V17.7673H16.5723V17.1203H17.1172V15.8544H17.6621V14.5603H17.1172V15.2073H16.5842V15.8544H15.5062V16.5014C14.7876 16.5061 13.3503 16.5127 13.3503 16.5014V15.8544H12.2606V15.2073H11.7157V14.5603H11.1945V13.9133H10.6496V13.2944H10.1047V12.6473H8.49369V12.0003H4.72683V12.6473H3.64889V13.2803H2.5591V14.5603H2.01421V15.2073H1.48116V15.8544H0.959961V17.1203Z" fill="currentColor"/>
<path d="M6.33782 9.44031H6.85902V8.79328H7.92511V8.17438H8.47V7.52735H10.6496V8.17438H11.7157V8.79328H12.2606V9.44031H12.8055V10.0873H13.3503V10.7344H13.8715V11.3814H14.9376V12.0003H19.7943V11.3814H20.8841V10.7344H21.4053V10.0873H21.9502V9.44031H22.4951V8.17438H23.04V6.88031H22.4951V7.52735H21.962V8.17438H20.8841V8.82141C20.1655 8.8261 18.7282 8.83266 18.7282 8.82141V8.17438H17.6384V7.52735H17.0935V6.88031H16.5723V6.23328H16.0274V5.61438H15.4825V4.96735H13.8715V4.32031H10.1047V4.96735H9.02674V5.60031H7.93696V6.88031H7.39206V7.52735H6.85902V8.17438H6.33782V9.44031Z" fill="currentColor"/>
</svg>
