<svg width="24" height="24" viewBox="0 0 24 24" fill="none" xmlns="http://www.w3.org/2000/svg">
<path fill-rule="evenodd" clip-rule="evenodd" d="M2.01788 23.0365V21.9697H0.962891V2.02964H2.05845V0.962891H21.9409V2.02964H23.0365V21.9697H21.9815V23.0365H2.01788ZM10.9041 21.4363H8.95645V13.0254H5.87264V10.974H13.5822V13.0254H10.9041V21.4363ZM14.3531 18.9746V19.8362H15.1241V20.5337H15.895V21.4363H19.7498V20.903H20.5207V20.2055H21.2917V16.9232H20.5207V15.9385H19.7498V15.282H18.9788V14.9127H17.4369V13.928H16.666V13.0254H17.4369V12.5741H18.2079V13.0254H18.9788V13.6408H20.5207V13.0254H21.2917V11.9587H20.5207V11.3022H19.7498V10.974H16.666V11.3022H15.895V11.9587H15.1241V15.282H15.895V15.9385H16.666V16.5539H17.4369V16.9642H18.2079V17.5386H18.9788V17.9489H19.344V18.9746H18.9788V19.549H17.4369V18.9746H16.666V17.9489H15.895V18.5233H15.1241V18.9746H14.3531Z" fill="currentColor"/>
</svg>
