<svg width="24" height="24" viewBox="0 0 24 24" fill="none" xmlns="http://www.w3.org/2000/svg">
<path d="M11.2051 21.2804H12.7948V19.712H13.5603V18.9569H14.3552V17.3594H15.15V15.8201H15.9449V14.2518H16.7104V13.4966H17.5052V11.9283H18.3001V10.3599H19.095V9.60476H19.8899V8.0364H20.6848V6.46803H21.4796V4.92871H22.2451V4.14453H23.04V3.36035H18.3001V4.14453H17.5052V5.7129H16.7104V7.25222H15.9449V8.79153H15.15V9.57572H14.3552V11.1441H13.5603V12.7124H12.7948V13.4966H11.2051V12.7124H10.4396V11.1731H9.64476V9.60476H8.84988V8.79153H8.055V7.25222H7.28956V5.7129H6.49468V4.14453H5.67036V3.36035H0.959961V4.14453H1.75484V4.92871H2.52028V6.46803H3.31516V8.0364H4.11004V9.60476H4.90492V10.3889H5.67036V11.9283H6.49468V13.4966H7.28956V14.2518H8.055V15.8201H8.84988V17.3594H9.64476V18.9569H10.4396V19.712H11.2051V21.2804Z" fill="black"/>
<path d="M18.3001 3.36035H23.04V4.14453H22.2451V4.92871H21.4796V6.46803H20.6848V8.0364H19.8899V9.60476H19.095V10.3599H18.3001V11.9283H17.5052V13.4966H16.7104V14.2518H15.9449V15.8201H15.15V17.3594H14.3552V18.9569H13.5603V19.712H12.7948V21.2804H11.2051V19.712H10.4396V18.9569H9.64476V17.3594H8.84988V15.8201H8.055V14.2518H7.28956V13.4966H6.49468V11.9283H5.67036V10.3889H4.90492V9.60476H4.11004V8.0364H3.31516V6.46803H2.52028V4.92871H1.75484V4.14453H0.959961V3.36035H5.67036M18.3001 3.36035H14.3552V4.14453H13.5603V5.7129H12.7948V7.25222H11.2051V5.7129H10.4396V4.14453H9.64476V3.36035H5.67036M18.3001 3.36035V4.14453H17.5052V5.7129H16.7104V7.25222H15.9449V8.79153H15.15V9.57572H14.3552V11.1441H13.5603V12.7124H12.7948V13.4966H11.2051V12.7124H10.4396V11.1731H9.64476V9.60476H8.84988V8.79153H8.055V7.25222H7.28956V5.7129H6.49468V4.14453H5.67036V3.36035" stroke="black" stroke-width="0.32"/>
</svg>
