<svg width="24" height="24" viewBox="0 0 24 24" fill="none" xmlns="http://www.w3.org/2000/svg">
<path d="M10.8966 17.9784H13.125V15.7501H10.8966V17.9784Z" fill="black"/>
<path d="M11.25 14.2501H12.75V9.00006H11.25V14.2501Z" fill="black"/>
<path fill-rule="evenodd" clip-rule="evenodd" d="M14.0016 3.39569L22.2 17.6335C22.3969 17.9711 22.5004 18.3549 22.5001 18.7456C22.4998 19.1364 22.3956 19.52 22.1982 19.8572C21.9961 20.2079 21.7044 20.4985 21.353 20.6993C21.0016 20.9001 20.6032 21.0039 20.1985 21.0001H3.80159C3.39658 21.0043 2.99773 20.9006 2.64599 20.6998C2.29425 20.499 2.00228 20.2082 1.80003 19.8572C1.60291 19.5199 1.49902 19.1361 1.49902 18.7454C1.49902 18.3546 1.60291 17.9709 1.80003 17.6335L9.99847 3.39569C10.2033 3.04687 10.4958 2.75764 10.8469 2.55668C11.198 2.35572 11.5955 2.25 12 2.25C12.4046 2.25 12.8021 2.35572 13.1532 2.55668C13.5042 2.75764 13.7967 3.04687 14.0016 3.39569ZM20.6024 19.3981C20.7256 19.3289 20.8282 19.2282 20.8997 19.1063C20.965 18.997 20.9998 18.8722 21.0005 18.7449C21.0011 18.6176 20.9676 18.4925 20.9035 18.3826L12.705 4.14475C12.6321 4.02341 12.529 3.92301 12.4058 3.8533C12.2826 3.7836 12.1435 3.74696 12.0019 3.74696C11.8603 3.74696 11.7212 3.7836 11.598 3.8533C11.4748 3.92301 11.3717 4.02341 11.2988 4.14475L3.10034 18.3826L3.80159 19.5001H20.1985C20.3398 19.5025 20.4792 19.4673 20.6024 19.3981ZM10.8966 17.9784H13.125V15.7501H10.8966V17.9784ZM11.25 14.2501H12.75V9.00006H11.25V14.2501Z" fill="black"/>
</svg>
