<svg width="112" height="112" viewBox="0 0 112 112" fill="none" xmlns="http://www.w3.org/2000/svg">
<g opacity="0.25">
<rect x="4" y="4" width="8" height="8" fill="#424242"/>
<rect opacity="0.1" x="20" y="4" width="8" height="8" fill="#424242"/>
<rect x="52" y="4" width="8" height="8" fill="#424242"/>
<rect opacity="0.6" x="68" y="4" width="8" height="8" fill="#424242"/>
<rect opacity="0.3" x="84" y="4" width="8" height="8" fill="#424242"/>
<rect x="100" y="4" width="8" height="8" fill="#424242"/>
<rect x="4" y="20" width="8" height="8" fill="#424242"/>
<rect opacity="0.3" x="20" y="20" width="8" height="8" fill="#424242"/>
<rect x="36" y="20" width="8" height="8" fill="#424242"/>
<rect opacity="0.1" x="52" y="20" width="8" height="8" fill="#424242"/>
<rect x="68" y="20" width="8" height="8" fill="#424242"/>
<rect opacity="0.6" x="84" y="20" width="8" height="8" fill="#424242"/>
<rect x="100" y="20" width="8" height="8" fill="#424242"/>
<rect opacity="0.6" x="4" y="36" width="8" height="8" fill="#424242"/>
<rect x="20" y="36" width="8" height="8" fill="#424242"/>
<rect opacity="0.3" x="36" y="36" width="8" height="8" fill="#424242"/>
<rect x="52" y="36" width="8" height="8" fill="#424242"/>
<rect opacity="0.3" x="84" y="36" width="8" height="8" fill="#424242"/>
<rect opacity="0.1" x="100" y="36" width="8" height="8" fill="#424242"/>
<rect opacity="0.1" x="4" y="52" width="8" height="8" fill="#424242"/>
<rect x="36" y="52" width="8" height="8" fill="#424242"/>
<rect opacity="0.6" x="52" y="52" width="8" height="8" fill="#424242"/>
<rect x="68" y="52" width="8" height="8" fill="#424242"/>
<rect opacity="0.3" x="84" y="52" width="8" height="8" fill="#424242"/>
<rect x="100" y="52" width="8" height="8" fill="#424242"/>
<rect x="4" y="68" width="8" height="8" fill="#424242"/>
<rect opacity="0.3" x="20" y="68" width="8" height="8" fill="#424242"/>
<rect x="36" y="68" width="8" height="8" fill="#424242"/>
<rect x="52" y="68" width="8" height="8" fill="#424242"/>
<rect opacity="0.1" x="68" y="68" width="8" height="8" fill="#424242"/>
<rect opacity="0.6" x="84" y="68" width="8" height="8" fill="#424242"/>
<rect x="100" y="68" width="8" height="8" fill="#424242"/>
<rect opacity="0.3" x="4" y="84" width="8" height="8" fill="#424242"/>
<rect x="20" y="84" width="8" height="8" fill="#424242"/>
<rect opacity="0.1" x="36" y="84" width="8" height="8" fill="#424242"/>
<rect opacity="0.6" x="52" y="84" width="8" height="8" fill="#424242"/>
<rect x="68" y="84" width="8" height="8" fill="#424242"/>
<rect opacity="0.1" x="100" y="84" width="8" height="8" fill="#424242"/>
<rect x="4" y="100" width="8" height="8" fill="#424242"/>
<rect opacity="0.6" x="20" y="100" width="8" height="8" fill="#424242"/>
<rect opacity="0.1" x="36" y="100" width="8" height="8" fill="#424242"/>
<rect x="68" y="100" width="8" height="8" fill="#424242"/>
<rect opacity="0.3" x="84" y="100" width="8" height="8" fill="#424242"/>
<rect x="100" y="100" width="8" height="8" fill="#424242"/>
</g>
</svg>
